<?xml version="1.0" encoding="UTF-8" standalone="no"?>
<!-- Created with Inkscape (http://www.inkscape.org/) -->

<svg
   width="110.862mm"
   height="19.868mm"
   viewBox="0 0 110.862 19.868"
   version="1.1"
   id="svg5"
   sodipodi:docname="km3buu_logo.svg"
   inkscape:version="1.2.2 (b0a8486541, 2022-12-01)"
   xmlns:inkscape="http://www.inkscape.org/namespaces/inkscape"
   xmlns:sodipodi="http://sodipodi.sourceforge.net/DTD/sodipodi-0.dtd"
   xmlns="http://www.w3.org/2000/svg"
   xmlns:svg="http://www.w3.org/2000/svg">
  <sodipodi:namedview
     id="namedview174"
     pagecolor="#ffffff"
     bordercolor="#000000"
     borderopacity="0.25"
     inkscape:showpageshadow="2"
     inkscape:pageopacity="0.0"
     inkscape:pagecheckerboard="0"
     inkscape:deskcolor="#d1d1d1"
     inkscape:document-units="mm"
     showgrid="false"
     inkscape:zoom="2.8615343"
     inkscape:cx="200.06749"
     inkscape:cy="37.567259"
     inkscape:window-width="3832"
     inkscape:window-height="2134"
     inkscape:window-x="3840"
     inkscape:window-y="18"
     inkscape:window-maximized="1"
     inkscape:current-layer="layer1" />
  <defs
     id="defs2" />
  <g
     id="layer1">
    <rect
       style="fill:#ffffff;stroke:none;stroke-width:0.600001;fill-opacity:0.40000001"
       id="rect280"
       width="110.862"
       height="19.868"
       x="0"
       y="0" />
    <g
       aria-label="KM3BUU"
       id="text236"
       style="font-size:21.1667px;font-family:System-ui;-inkscape-font-specification:System-ui;fill:#0000ff;stroke:#0011f3;stroke-width:0.2"
       transform="matrix(1.075118,0,0,1.075118,-29.009469,-2.5127752)">
      <path
         d="m 55.553136,3.6463924 h 2.098066 v 6.8626416 l 6.521577,-6.8626416 h 2.449466 L 60.617434,9.9509272 66.797945,19.077 h -2.521813 l -5.033293,-7.730807 -1.591637,1.69499 V 19.077 h -2.098066 z"
         style="font-family:'DejaVu Sans Mono';-inkscape-font-specification:'DejaVu Sans Mono';fill:#000000;stroke:#ffffff"
         id="path2430" />
      <path
         d="m 67.769464,3.6463924 h 2.790531 l 2.666509,7.8548306 2.687178,-7.8548306 h 2.800867 V 19.077 H 76.781848 V 5.4447351 L 74.032657,13.578619 H 72.451356 L 69.69183,5.4447351 V 19.077 h -1.922366 z"
         style="font-family:'DejaVu Sans Mono';-inkscape-font-specification:'DejaVu Sans Mono';fill:#000000;stroke:#ffffff"
         id="path2432" />
      <path
         d="m 87.644251,10.819093 q 1.519289,0.403076 2.325443,1.436607 0.806154,1.023195 0.806154,2.563155 0,2.129072 -1.436607,3.348638 -1.426272,1.20923 -3.958421,1.20923 -1.064537,0 -2.170414,-0.19637 -1.105877,-0.196371 -2.170414,-0.568442 v -2.077396 q 1.054201,0.547771 2.077396,0.816489 1.023195,0.268718 2.036055,0.268718 1.71566,0 2.635502,-0.775148 0.919842,-0.775147 0.919842,-2.232425 0,-1.34359 -0.919842,-2.129073 -0.919842,-0.795818 -2.490808,-0.795818 H 83.706501 V 9.9715978 h 1.591636 q 1.436607,0 2.242761,-0.6304535 0.806154,-0.6304535 0.806154,-1.7570015 0,-1.1885598 -0.754478,-1.8190133 -0.744141,-0.6407888 -2.129072,-0.6407888 -0.919842,0 -1.901696,0.2067061 -0.981854,0.206706 -2.056725,0.6201182 V 4.0287986 q 1.250572,-0.3307297 2.22209,-0.4960945 0.981854,-0.1653649 1.736331,-0.1653649 2.253096,0 3.596685,1.1368834 1.353925,1.126548 1.353925,2.9972378 0,1.2712423 -0.713136,2.1187371 -0.7028,0.8474945 -2.056725,1.1988955 z"
         style="font-family:'DejaVu Sans Mono';-inkscape-font-specification:'DejaVu Sans Mono';fill:#000000;stroke:#ffffff"
         id="path2434" />
      <path
         d="m 96.181212,11.707929 v 5.65341 h 2.470137 q 1.819011,0 2.594161,-0.630453 0.77515,-0.640789 0.77515,-2.098067 0,-1.508954 -0.81649,-2.211754 -0.81649,-0.713136 -2.552821,-0.713136 z m 0,-6.3458763 v 4.6508863 h 2.428796 q 1.508952,0 2.180752,-0.578777 0.68213,-0.5787769 0.68213,-1.8706898 0,-1.1678892 -0.6718,-1.6846544 -0.66146,-0.5167651 -2.191082,-0.5167651 z M 94.083145,3.6463924 h 4.568204 q 2.366781,0 3.648361,1.023195 1.28158,1.023195 1.28158,2.8938848 0,1.4159365 -0.68213,2.2324254 -0.6718,0.8164894 -2.02572,1.0231954 1.51929,0.227376 2.37712,1.302248 0.86816,1.064536 0.86816,2.718184 0,2.098067 -1.37459,3.172938 -1.3746,1.064537 -4.092781,1.064537 h -4.568204 z"
         style="font-family:'DejaVu Sans Mono';-inkscape-font-specification:'DejaVu Sans Mono';fill:#000000;stroke:#ffffff"
         id="path2436" />
      <path
         d="M 106.6302,13.154871 V 3.6463924 h 2.09807 V 14.105719 q 0,1.126548 0.062,1.612307 0.062,0.475424 0.21704,0.733807 0.33073,0.609783 0.95085,0.919842 0.63045,0.310059 1.51929,0.310059 0.89917,0 1.51929,-0.310059 0.62012,-0.310059 0.96118,-0.919842 0.15503,-0.258383 0.21704,-0.733807 0.062,-0.475424 0.062,-1.591636 V 3.6463924 h 2.08774 v 9.5084786 q 0,2.366784 -0.29973,3.369309 -0.28939,0.992189 -1.01286,1.643313 -0.68213,0.609783 -1.56063,0.909507 -0.8785,0.299723 -1.97404,0.299723 -1.08521,0 -1.96371,-0.299723 -0.8785,-0.299724 -1.57096,-0.909507 -0.71314,-0.640789 -1.01286,-1.653648 -0.29973,-1.023195 -0.29973,-3.358974 z"
         style="font-family:'DejaVu Sans Mono';-inkscape-font-specification:'DejaVu Sans Mono';fill:#000000;stroke:#ffffff"
         id="path2438" />
      <path
         d="M 119.37363,13.154871 V 3.6463924 h 2.09807 V 14.105719 q 0,1.126548 0.062,1.612307 0.062,0.475424 0.21704,0.733807 0.33073,0.609783 0.95085,0.919842 0.63045,0.310059 1.51929,0.310059 0.89917,0 1.51929,-0.310059 0.62011,-0.310059 0.96118,-0.919842 0.15503,-0.258383 0.21704,-0.733807 0.062,-0.475424 0.062,-1.591636 V 3.6463924 h 2.08773 v 9.5084786 q 0,2.366784 -0.29972,3.369309 -0.28939,0.992189 -1.01286,1.643313 -0.68213,0.609783 -1.56063,0.909507 -0.8785,0.299723 -1.97404,0.299723 -1.08521,0 -1.96371,-0.299723 -0.8785,-0.299724 -1.57097,-0.909507 -0.71313,-0.640789 -1.01286,-1.653648 -0.29972,-1.023195 -0.29972,-3.358974 z"
         style="font-family:'DejaVu Sans Mono';-inkscape-font-specification:'DejaVu Sans Mono';fill:#000000;stroke:#ffffff"
         id="path2440" />
    </g>
    <g
       id="g2407"
       transform="translate(-24.843942,-2.2673393)">
      <path
         style="fill:#000000;fill-opacity:1;stroke:#000000;stroke-width:0.6;stroke-dasharray:none;stroke-opacity:1"
         d="M 25.945168,3.9910966 35.806951,7.525955"
         id="path1161" />
      <path
         style="fill:#000000;fill-opacity:1;stroke:#000000;stroke-width:0.6;stroke-dasharray:none;stroke-opacity:1"
         d="M 35.806951,7.525955 45.671232,4.056601"
         id="path1161-3" />
      <path
         style="fill:#000000;fill-opacity:0;stroke:#000000;stroke-width:0.6;stroke-dasharray:none;stroke-opacity:1"
         d="m 35.645609,7.4714236 c 0,0 0.553545,0.1632177 0.704271,0.3718249 0.12345,0.1708557 -0.04014,0.4436476 0.08599,0.6127955 0.14023,0.1880576 0.505269,0.1369754 0.651697,0.3208818 0.1441,0.1809837 -0.0056,0.4827548 0.138561,0.6637387 0.146427,0.1839065 0.505269,0.136976 0.651696,0.3208817 0.144101,0.1809845 -0.0056,0.4827558 0.138561,0.6637388 0.146427,0.183907 0.505269,0.136976 0.651696,0.320882 0.144101,0.180985 -0.0056,0.482756 0.138561,0.663739 0.146427,0.183906 0.50527,0.136976 0.651697,0.320882 0.144101,0.180984 -0.0056,0.482756 0.138561,0.66374 0.146427,0.183905 0.505268,0.136975 0.651696,0.320881 0.144101,0.180984 -0.0056,0.482756 0.138561,0.66374 0.146428,0.183905 0.505269,0.136975 0.651696,0.320881 0.144101,0.180984 -0.0056,0.482756 0.138561,0.66374 0.146427,0.183905 0.505269,0.136975 0.651697,0.320881 0.144101,0.180984 0.13856,0.66374 0.13856,0.66374 v 0 0 0 0 0 0 0 0 0 0 0 0 0 0 0 0 l 0.0015,0.002 0.0015,0.002 0.0015,0.002 0.0015,0.002 0.0015,0.002 0.0015,0.002 0.0015,0.002 0.0015,0.002 0.0015,0.002 0.0015,0.002 0.0015,0.002 0.0015,0.002 0.0015,0.002 0.0015,0.002 0.0015,0.002 0.0015,0.002"
         id="path1423" />
      <g
         id="g1595"
         transform="translate(0.3577195,-0.02917461)">
        <ellipse
           style="fill:#ff0000;fill-opacity:1;stroke:#000000;stroke-width:0.291783;stroke-dasharray:none;stroke-opacity:1"
           id="path1499"
           cx="42.626408"
           cy="15.779175"
           rx="1.6041086"
           ry="1.6041087" />
        <ellipse
           style="fill:#ff0000;fill-opacity:1;stroke:#000000;stroke-width:0.291783;stroke-dasharray:none;stroke-opacity:1"
           id="path1499-5"
           cx="43.142281"
           cy="18.6071"
           rx="1.6041086"
           ry="1.6041087" />
        <ellipse
           style="fill:#ffffff;fill-opacity:1;stroke:#000000;stroke-width:0.291783;stroke-dasharray:none;stroke-opacity:1"
           id="path1499-7-9-2-8"
           cx="41.780815"
           cy="18.25577"
           rx="1.6041086"
           ry="1.6041087" />
        <ellipse
           style="fill:#ffffff;fill-opacity:1;stroke:#000000;stroke-width:0.291783;stroke-dasharray:none;stroke-opacity:1"
           id="path1499-7"
           cx="44.746387"
           cy="17.298069"
           rx="1.6041086"
           ry="1.6041087" />
        <ellipse
           style="fill:#ffffff;fill-opacity:1;stroke:#000000;stroke-width:0.291783;stroke-dasharray:none;stroke-opacity:1"
           id="path1499-7-9"
           cx="44.0177"
           cy="16.105494"
           rx="1.6041086"
           ry="1.6041087" />
        <ellipse
           style="fill:#ff0000;fill-opacity:1;stroke:#000000;stroke-width:0.291783;stroke-dasharray:none;stroke-opacity:1"
           id="path1499-2"
           cx="41.392281"
           cy="16.651661"
           rx="1.6041086"
           ry="1.6041087" />
        <ellipse
           style="fill:#ff0000;fill-opacity:1;stroke:#000000;stroke-width:0.291783;stroke-dasharray:none;stroke-opacity:1"
           id="path1499-2-9"
           cx="44.191109"
           cy="18.25577"
           rx="1.6041086"
           ry="1.6041087" />
        <ellipse
           style="fill:#ffffff;fill-opacity:1;stroke:#000000;stroke-width:0.291783;stroke-dasharray:none;stroke-opacity:1"
           id="path1499-7-9-2"
           cx="43.142281"
           cy="17.075651"
           rx="1.6041086"
           ry="1.6041087" />
      </g>
      <path
         style="fill:#ffffff;fill-opacity:1;stroke:#000000;stroke-width:0.6;stroke-dasharray:none;stroke-opacity:1"
         d="m 49.178,17.3 h -2"
         id="path1910-4-5" />
      <path
         style="fill:#ffffff;fill-opacity:1;stroke:#000000;stroke-width:0.6;stroke-dasharray:none;stroke-opacity:1"
         d="M 48.382052,20.8 46.65,19.8"
         id="path1910-4-5-63" />
      <path
         style="fill:#ffffff;fill-opacity:1;stroke:#000000;stroke-width:0.6;stroke-dasharray:none;stroke-opacity:1"
         d="M 48.382052,13.8 46.65,14.8"
         id="path1910-4-5-0" />
      <path
         style="fill:#ffffff;fill-opacity:1;stroke:#000000;stroke-width:0.6;stroke-dasharray:none;stroke-opacity:1"
         d="m 49.009498,15.541181 -1.931852,0.517638"
         id="path1910-4-5-6" />
      <path
         style="fill:#ffffff;fill-opacity:1;stroke:#000000;stroke-width:0.6;stroke-dasharray:none;stroke-opacity:1"
         d="M 49.009498,19.058819 47.077646,18.541181"
         id="path1910-4-5-6-1" />
      <g
         aria-label="π"
         id="text1988"
         style="font-size:2.82222px;font-family:'DejaVu Sans Mono';-inkscape-font-specification:'DejaVu Sans Mono';fill:#ffffff;stroke:#000000;stroke-width:0.119723">
        <path
           d="m 50.740256,13.331798 v 0.310058 h -0.223242 v 0.734494 q 0,0.177767 0.03307,0.221864 0.03445,0.04272 0.130913,0.04272 0.03445,0 0.05788,-0.0014 0.02343,-0.0014 0.04548,-0.0041 v 0.259071 q -0.06063,0.01791 -0.129536,0.02618 -0.06752,0.0083 -0.143315,0.0083 -0.108865,0 -0.187413,-0.02343 -0.07855,-0.02343 -0.11989,-0.06752 -0.04272,-0.0441 -0.06201,-0.103352 -0.01791,-0.05926 -0.01791,-0.180523 v -0.04823 -0.864029 h -0.377582 v 1.233343 H 49.35395 v -1.233343 h -0.223242 v -0.310058 z"
           style="font-weight:bold;-inkscape-font-specification:'DejaVu Sans Mono Bold';stroke-width:0.119722"
           id="path2409" />
      </g>
      <g
         aria-label="π"
         id="text1988-2"
         style="font-size:2.82222px;font-family:'DejaVu Sans Mono';-inkscape-font-specification:'DejaVu Sans Mono';fill:#ffffff;stroke:#000000;stroke-width:0.119723">
        <path
           d="m 53.141783,17.248539 v 0.310058 h -0.223242 v 0.734494 q 0,0.177767 0.03307,0.221864 0.03445,0.04272 0.130914,0.04272 0.03445,0 0.05788,-0.0014 0.02343,-0.0014 0.04547,-0.0041 v 0.259071 q -0.06063,0.01791 -0.129535,0.02618 -0.06752,0.0083 -0.143316,0.0083 -0.108865,0 -0.187413,-0.02343 -0.07855,-0.02343 -0.119889,-0.06752 -0.04272,-0.0441 -0.06201,-0.103353 -0.01791,-0.05926 -0.01791,-0.180523 v -0.04823 -0.86403 h -0.377583 v 1.233344 h -0.39274 V 17.55864 h -0.223242 v -0.310058 z"
           style="font-weight:bold;-inkscape-font-specification:'DejaVu Sans Mono Bold';stroke-width:0.119722"
           id="path2412" />
      </g>
      <g
         aria-label="µ"
         id="text1988-6"
         style="font-size:2.82222px;font-family:'DejaVu Sans Mono';-inkscape-font-specification:'DejaVu Sans Mono';fill:#ffffff;stroke:#000000;stroke-width:0.119723">
        <path
           d="m 50.887777,16.585495 v -2.133201 h 0.395497 v 0.937065 q 0,0.157096 0.0565,0.237022 0.0565,0.07855 0.169499,0.07855 0.111621,0 0.166743,-0.07855 0.05512,-0.07855 0.05512,-0.237022 v -0.937065 h 0.398253 v 1.069356 q 0,0.09784 0.01791,0.14056 0.01929,0.04272 0.06201,0.04272 0.01929,0 0.03721,-0.0069 0.01791,-0.0083 0.03859,-0.02343 v 0.299035 q -0.05926,0.03169 -0.110243,0.04685 -0.05099,0.01516 -0.09922,0.01516 -0.09922,0 -0.162608,-0.05099 -0.06201,-0.05237 -0.09922,-0.166743 -0.05099,0.107487 -0.126779,0.162609 -0.07579,0.05512 -0.172255,0.05512 -0.0813,0 -0.139182,-0.03307 -0.0565,-0.03169 -0.09233,-0.09784 l 0.0028,0.68075 z"
           style="font-weight:bold;-inkscape-font-specification:'DejaVu Sans Mono Bold';stroke-width:0.119722"
           id="path2415" />
      </g>
      <g
         aria-label="e"
         id="text1988-6-2"
         style="font-size:2.82222px;font-family:'DejaVu Sans Mono';-inkscape-font-specification:'DejaVu Sans Mono';fill:#ffffff;stroke:#000000;stroke-width:0.119723">
        <path
           d="m 52.234429,19.273346 q -0.14056,0.05788 -0.286632,0.08682 -0.146072,0.02894 -0.30868,0.02894 -0.387229,0 -0.592556,-0.206705 -0.20395,-0.208084 -0.20395,-0.598068 0,-0.377583 0.197059,-0.59669 0.19706,-0.219108 0.537435,-0.219108 0.343131,0 0.531922,0.203949 0.190169,0.202572 0.190169,0.571886 v 0.163986 h -1.04593 q 0.0014,0.181901 0.107487,0.271473 0.106109,0.08957 0.316949,0.08957 0.139181,0 0.274229,-0.03996 0.135048,-0.03996 0.282498,-0.12678 z m -0.341754,-0.868163 q -0.0028,-0.159852 -0.08268,-0.241157 -0.07855,-0.08268 -0.232888,-0.08268 -0.139182,0 -0.221864,0.08544 -0.08268,0.08406 -0.09784,0.239779 z"
           style="font-weight:bold;-inkscape-font-specification:'DejaVu Sans Mono Bold';stroke-width:0.119722"
           id="path2418" />
      </g>
      <g
         aria-label="K"
         id="text1988-6-2-3"
         style="font-size:2.82222px;font-family:'DejaVu Sans Mono';-inkscape-font-specification:'DejaVu Sans Mono';fill:#ffffff;stroke:#000000;stroke-width:0.119723">
        <path
           d="m 49.848177,15.591398 h 0.406521 v 0.813042 l 0.636653,-0.813042 h 0.460265 l -0.649056,0.810286 0.672482,1.247124 h -0.451996 l -0.487825,-0.926041 -0.180523,0.228754 v 0.697287 h -0.406521 z"
           style="font-weight:bold;-inkscape-font-specification:'DejaVu Sans Mono Bold';stroke-width:0.119722"
           id="path2421" />
      </g>
      <g
         aria-label="n"
         id="text1988-6-2-3-9"
         style="font-size:2.82222px;font-family:'DejaVu Sans Mono';-inkscape-font-specification:'DejaVu Sans Mono';fill:#ffffff;stroke:#000000;stroke-width:0.119723">
        <path
           d="m 53.303869,14.4572 v 1.001833 H 52.90286 v -0.939821 q 0,-0.168121 -0.04823,-0.239779 -0.04685,-0.07304 -0.15434,-0.07304 -0.108865,0 -0.172255,0.09784 -0.06201,0.09784 -0.06201,0.271473 v 0.883322 h -0.401009 v -1.543402 h 0.401009 v 0.231511 q 0.04272,-0.128158 0.146072,-0.198438 0.103352,-0.07028 0.249424,-0.07028 0.219108,0 0.330729,0.146072 0.111621,0.144694 0.111621,0.432704 z"
           style="font-weight:bold;-inkscape-font-specification:'DejaVu Sans Mono Bold';stroke-width:0.119722"
           id="path2424" />
      </g>
      <g
         aria-label="p"
         id="text1988-6-2-3-7"
         style="font-size:2.82222px;font-family:'DejaVu Sans Mono';-inkscape-font-specification:'DejaVu Sans Mono';fill:#ffffff;stroke:#000000;stroke-width:0.119723">
        <path
           d="m 50.250564,20.27075 v 0.804773 h -0.402387 v -2.130445 h 0.402387 v 0.23151 q 0.06339,-0.133669 0.166743,-0.201193 0.103353,-0.06752 0.242534,-0.06752 0.264583,0 0.410655,0.212218 0.146072,0.212217 0.146072,0.598068 0,0.391362 -0.148828,0.600824 -0.14745,0.209462 -0.421679,0.209462 -0.124023,0 -0.223242,-0.06339 -0.09784,-0.06477 -0.172255,-0.194303 z m 0.562239,-0.555349 q 0,-0.223242 -0.07441,-0.350022 -0.07441,-0.126779 -0.205327,-0.126779 -0.130914,0 -0.206706,0.126779 -0.07579,0.12678 -0.07579,0.350022 0,0.223242 0.07579,0.350021 0.07579,0.12678 0.206706,0.12678 0.130913,0 0.205327,-0.12678 0.07441,-0.126779 0.07441,-0.350021 z"
           style="font-weight:bold;-inkscape-font-specification:'DejaVu Sans Mono Bold';stroke-width:0.119722"
           id="path2427" />
      </g>
    </g>
  </g>
</svg>
